<svg width="31" height="30" viewBox="0 0 31 30" fill="none" xmlns="http://www.w3.org/2000/svg">
<path d="M25.0625 27C24.3594 26.2969 24.6406 25.4062 25.1094 24.9375C25.5781 24.4687 26.4688 24.1875 27.1719 24.8906C27.875 25.5937 28.1563 27 27.6406 27.4687C27.1719 27.9844 25.7656 27.7031 25.0625 27ZM26.7031 20.3437C26 19.6406 26.2812 18.75 26.75 18.2812C27.2187 17.8125 28.1094 17.5312 28.8125 18.2344C29.5156 18.9375 29.7969 20.3437 29.2812 20.8594C28.8125 21.3281 27.4062 21.0469 26.7031 20.3437Z" fill="#3E4347"/>
<path d="M6.54688 27C4.39062 27 1.4375 26.4844 1.4375 24.2344C1.4375 21.75 3.875 19.4062 6.54688 19.4062V27Z" fill="#5B7F32"/>
<path d="M11.7031 22.4531C11.7031 26.6719 8.75 27.0469 6.59375 27.0469C4.4375 27.0469 2.28125 26.0625 2.28125 24.2812C2.28125 22.1719 4.4375 19.4531 6.59375 19.4531C8.70312 19.4531 11.7031 20.3438 11.7031 22.4531Z" fill="#94D82A"/>
<path d="M10.4375 27C2.98438 27 2.9375 18.0469 10.5781 18.0469L10.4375 27Z" fill="#5B7F32"/>
<path d="M15.0781 21.6094C15.0781 26.5781 12.4531 27.0469 10.3906 27.0469C3.64062 27.0469 3.82812 18.0937 10.5312 18.0937C12.6406 18.0469 15.0781 19.125 15.0781 21.6094Z" fill="#94D82A"/>
<path d="M14.9375 27C6.92188 27 7.25 17.625 14.9375 17.625V27Z" fill="#5B7F32"/>
<path d="M20.375 21.3281C20.375 26.5313 17.3281 27 14.9375 27C8.32813 27 8.32813 17.625 14.9375 17.625C17.2813 17.625 20.375 18.75 20.375 21.3281Z" fill="#94D82A"/>
<path d="M21.4531 27C11.4219 27 12.3594 16.2188 20.75 16.2188L21.4531 27Z" fill="#5B7F32"/>
<path d="M27.5469 21.1875C27.5469 26.3906 24.2188 27.0469 21.4531 27.0469C13.0156 27.0469 13.0156 16.0781 21.4531 16.0781C24.2188 16.0313 27.5469 18.5625 27.5469 21.1875Z" fill="#94D82A"/>
<path d="M27.4062 20.2969C27.4062 20.2969 25.7187 22.3594 23.1406 22.6875C20.5156 23.0156 13.7656 21.1875 17.9844 15.3281L27.4062 20.2969Z" fill="#5B7F32"/>
<path d="M28.4844 17.9062C28.4844 20.5781 25.3906 21.75 22.8125 21.75C20.2344 21.75 17.1406 20.5781 17.1406 17.9062C17.1406 15.2344 20.2344 12.0469 22.8125 12.0469C25.4375 12.0469 28.4844 15.2344 28.4844 17.9062Z" fill="#94D82A"/>
<path d="M15.4531 25.6875C16.4375 24.7031 17.4219 24.8437 17.9375 25.3594C18.4062 25.8281 18.5937 26.8594 17.6094 27.8437C16.625 28.8281 14.8906 29.3906 14.375 28.9219C13.8594 28.4062 14.4687 26.6719 15.4531 25.6875ZM16.4375 15.75C17.4219 16.7344 17.2812 17.7187 16.7656 18.2344C16.2969 18.7031 15.2656 18.8906 14.2812 17.9062C13.2969 16.9219 12.7344 15.1875 13.2031 14.7187C13.7187 14.2031 15.4531 14.7656 16.4375 15.75ZM10.25 25.9219C11.0937 25.0781 11.9375 25.2187 12.3125 25.6406C12.7344 26.0625 12.875 26.9062 12.0312 27.7031C11.1875 28.5469 9.73437 29.0156 9.3125 28.5937C8.9375 28.2187 9.40625 26.7187 10.25 25.9219ZM6.125 26.0625C6.82812 25.3594 7.53125 25.4531 7.90625 25.8281C8.23437 26.1562 8.375 26.9062 7.67187 27.6094C6.96875 28.3125 5.70312 28.7344 5.375 28.3594C5 28.0312 5.42187 26.7656 6.125 26.0625Z" fill="#3E4347"/>
<path d="M13.8125 18.75L13.3438 19.2188L13.8125 19.6875L14.2344 19.2188L13.8125 18.75ZM12.4062 21.6094L11.9844 22.0781L12.4062 22.5469L12.875 22.0781L12.4062 21.6094ZM7.8125 19.2188L7.34375 19.6875L7.8125 20.1094L8.28125 19.6875L7.8125 19.2188ZM4.29688 21.1875L3.875 21.6094L4.29688 22.0781L4.76563 21.6094L4.29688 21.1875ZM3.54688 22.2188L3.07812 22.6875L3.54688 23.1563L4.01562 22.6875L3.54688 22.2188ZM16.7187 20.8594L16.25 21.3281L16.7187 21.7969L17.1875 21.3281L16.7187 20.8594ZM17.8906 22.3125L17.4219 22.7812L17.8906 23.2031L18.3594 22.7812L17.8906 22.3125ZM26.2812 22.0781L25.8125 22.5469L26.2812 22.9688L26.7031 22.5469L26.2812 22.0781ZM25.9531 18.3281L25.4844 18.75L25.9531 19.2188L26.375 18.75L25.9531 18.3281ZM19.3906 17.0156L18.9219 17.4375L19.3906 17.9063L19.8125 17.4375L19.3906 17.0156ZM11.9844 18.9844L11.0469 19.875L11.9844 20.8125L12.875 19.875L11.9844 18.9844ZM26.8438 16.0781L25.9531 17.0156L26.8438 17.9063L27.7344 17.0156L26.8438 16.0781ZM7.34375 20.4844L6.45312 21.4219L7.34375 22.3125L8.28125 21.4219L7.34375 20.4844Z" fill="#5B7F32"/>
<path d="M19.4844 4.82812L19.0625 4.78125C19.1094 3.89062 18.4531 2.76562 17.2812 2.4375L17.375 2.01562C18.6406 2.39062 19.5781 3.60938 19.4844 4.82812Z" fill="#3E4347"/>
<path d="M18.125 1.59375C18.5 2.01563 18.4531 2.67188 18.0313 3.04688C17.6094 3.42188 16.9531 3.375 16.5781 2.95313C16.2031 2.53125 16.25 1.875 16.6719 1.5C17.0937 1.07813 17.75 1.125 18.125 1.59375ZM23.5625 4.59375L23.5156 4.17188C24.4062 4.07813 25.3437 3.14063 25.4375 1.96875L25.8594 2.01563C25.7656 3.28125 24.7344 4.45313 23.5625 4.59375Z" fill="#3E4347"/>
<path d="M26.4688 2.625C26.1406 3.09375 25.4844 3.14062 25.0156 2.8125C24.5469 2.4375 24.5 1.82812 24.8281 1.35937C25.1563 0.890621 25.8125 0.843746 26.2812 1.17187C26.7031 1.5 26.7969 2.15625 26.4688 2.625Z" fill="#3E4347"/>
<path d="M26.6094 13.9219C25.4844 17.4375 18.9219 17.625 18.0312 15.3281L26.6094 13.9219Z" fill="#5B7F32"/>
<path d="M28.25 10.5C28.4844 15.375 18.5469 18.7031 15.6406 12.9375C13.4375 8.53126 16.9063 3.93751 20.5625 3.51563C26.5625 2.81251 28.1563 8.15626 28.25 10.5Z" fill="#94D82A"/>
<path d="M24.5469 8.57812C24.5469 9.375 24.125 9.98437 23.6094 9.98437C23.0938 9.98437 22.6719 9.375 22.6719 8.57812C22.6719 7.78125 23.0938 7.17188 23.6094 7.17188C24.125 7.17188 24.5469 7.82812 24.5469 8.57812Z" fill="#3E4347"/>
<path d="M18.0312 9.98437C18.549 9.98437 18.9688 9.35477 18.9688 8.57812C18.9688 7.80147 18.549 7.17188 18.0312 7.17188C17.5135 7.17188 17.0938 7.80147 17.0938 8.57812C17.0938 9.35477 17.5135 9.98437 18.0312 9.98437Z" fill="#3E4347"/>
<path d="M20.7969 13.7344C19.6719 13.7344 18.6875 13.3125 18.6875 12.8906C18.6875 12.8437 18.6875 12.7969 18.7344 12.75C18.7813 12.7031 18.8281 12.7031 18.9219 12.7031C19.0156 12.7031 19.0625 12.75 19.2031 12.7969C19.4844 12.8906 20 13.125 20.8438 13.125C21.6875 13.125 22.2031 12.8906 22.4375 12.7969C22.5781 12.75 22.625 12.7031 22.7188 12.7031C22.8125 12.7031 22.9062 12.75 22.9062 12.8906C22.9062 13.3125 21.9219 13.7344 20.7969 13.7344Z" fill="#3E4347"/>
<g opacity="0.7">
<path d="M25.6719 12.3281C26.5003 12.3281 27.1719 11.8035 27.1719 11.1562C27.1719 10.509 26.5003 9.98438 25.6719 9.98438C24.8434 9.98438 24.1719 10.509 24.1719 11.1562C24.1719 11.8035 24.8434 12.3281 25.6719 12.3281Z" fill="#EA83A3"/>
<path d="M16.625 11.9531C17.2981 11.9531 17.8438 11.5754 17.8438 11.1094C17.8438 10.6434 17.2981 10.2656 16.625 10.2656C15.9519 10.2656 15.4062 10.6434 15.4062 11.1094C15.4062 11.5754 15.9519 11.9531 16.625 11.9531Z" fill="#EA83A3"/>
</g>
</svg>
