<svg width="31" height="30" viewBox="0 0 31 30" fill="none" xmlns="http://www.w3.org/2000/svg">
<path d="M11.2312 11.3C9.43125 10.9312 6.9875 10.9437 6.08125 12.55C4.91875 14.6062 6.76875 15.6062 7.90625 14.55C9.04375 13.4937 6.8875 10.8 2.90625 12.1437" stroke="#45413C" stroke-linecap="round" stroke-linejoin="round"/>
<path d="M24.8312 22.5C25.1841 23.0256 25.3732 23.644 25.3745 24.2771C25.3758 24.9101 25.1893 25.5293 24.8387 26.0564C24.488 26.5834 23.9888 26.9946 23.4044 27.2379C22.82 27.4813 22.1765 27.5458 21.5554 27.4233C20.9343 27.3008 20.3635 26.9969 19.9152 26.5499C19.4669 26.103 19.1612 25.5331 19.0369 24.9124C18.9125 24.2917 18.975 23.648 19.2166 23.0628C19.4581 22.4777 19.8678 21.9773 20.3937 21.625C21.0984 21.1531 21.9615 20.9801 22.7936 21.1442C23.6256 21.3083 24.3585 21.7959 24.8312 22.5Z" fill="#9F5AE5"/>
<path d="M25.15 23.125C25.0354 23.231 24.912 23.3272 24.7812 23.4125C24.1197 23.8547 23.3394 24.0857 22.5437 24.075C22.4609 24.5987 22.2704 25.0996 21.9842 25.546C21.6981 25.9925 21.3225 26.3747 20.8812 26.6687C20.7293 26.7727 20.5682 26.8627 20.4 26.9375C20.0487 26.7102 19.7485 26.4122 19.5187 26.0625C19.1702 25.5385 18.9842 24.9231 18.9842 24.2937C18.9842 23.6644 19.1702 23.049 19.5187 22.525C19.7535 22.1703 20.0549 21.8646 20.4062 21.625C20.8381 21.3316 21.3366 21.1511 21.8562 21.1C22.4324 21.0424 23.0134 21.1421 23.5373 21.3887C24.0612 21.6352 24.5084 22.0193 24.8312 22.5C24.9644 22.6935 25.0715 22.9036 25.15 23.125Z" fill="#803EC2"/>
<path d="M24.8312 22.5C25.1841 23.0256 25.3732 23.644 25.3745 24.2771C25.3758 24.9101 25.1893 25.5293 24.8387 26.0564C24.488 26.5834 23.9888 26.9946 23.4044 27.2379C22.82 27.4813 22.1765 27.5458 21.5554 27.4233C20.9343 27.3008 20.3635 26.9969 19.9152 26.5499C19.4669 26.103 19.1612 25.5331 19.0369 24.9124C18.9125 24.2917 18.975 23.648 19.2166 23.0628C19.4581 22.4777 19.8678 21.9773 20.3937 21.625C21.0984 21.1531 21.9615 20.9801 22.7936 21.1442C23.6256 21.3083 24.3585 21.7959 24.8312 22.5Z" stroke="#45413C" stroke-linecap="round" stroke-linejoin="round"/>
<path d="M20.4625 9.56876C20.8531 10.1522 21.0619 10.8384 21.0625 11.5405C21.0631 12.2426 20.8556 12.9291 20.466 13.5133C20.0765 14.0974 19.5224 14.5529 18.874 14.8222C18.2256 15.0915 17.5119 15.1624 16.8231 15.026C16.1344 14.8897 15.5015 14.5522 15.0046 14.0562C14.5077 13.5601 14.169 12.9279 14.0314 12.2394C13.8938 11.5509 13.9634 10.8371 14.2315 10.1881C14.4996 9.53923 14.9541 8.98437 15.5375 8.59376C16.3204 8.07159 17.2783 7.881 18.2014 8.06375C19.1246 8.2465 19.9376 8.78769 20.4625 9.56876Z" fill="#803EC2" stroke="#45413C" stroke-linecap="round" stroke-linejoin="round"/>
<path opacity="0.15" d="M9.04375 27.6813C9.04375 27.8216 9.2552 27.9606 9.66603 28.0902C10.0769 28.2199 10.679 28.3377 11.4381 28.437C12.1973 28.5362 13.0985 28.6149 14.0903 28.6686C15.0821 28.7224 16.1452 28.75 17.2187 28.75C18.2923 28.75 19.3553 28.7224 20.3472 28.6686C21.339 28.6149 22.2402 28.5362 22.9993 28.437C23.7585 28.3377 24.3606 28.2199 24.7715 28.0902C25.1823 27.9606 25.3937 27.8216 25.3937 27.6813C25.3937 27.5409 25.1823 27.4019 24.7715 27.2723C24.3606 27.1426 23.7585 27.0248 22.9993 26.9255C22.2402 26.8263 21.339 26.7476 20.3472 26.6939C19.3553 26.6401 18.2923 26.6125 17.2187 26.6125C16.1452 26.6125 15.0821 26.6401 14.0903 26.6939C13.0985 26.7476 12.1973 26.8263 11.4381 26.9255C10.679 27.0248 10.0769 27.1426 9.66603 27.2723C9.2552 27.4019 9.04375 27.5409 9.04375 27.6813Z" fill="#45413C"/>
<path d="M15.15 13.125C15.5398 13.7085 15.7479 14.3945 15.7481 15.0962C15.7482 15.798 15.5404 16.484 15.1508 17.0677C14.7613 17.6514 14.2075 18.1065 13.5594 18.3756C12.9113 18.6447 12.1979 18.7157 11.5095 18.5796C10.8211 18.4434 10.1885 18.1064 9.69153 17.6109C9.19459 17.1154 8.85566 16.4837 8.71753 15.7957C8.57941 15.1077 8.6483 14.3942 8.91549 13.7453C9.18269 13.0964 9.6362 12.5413 10.2187 12.15C10.6061 11.8888 11.0413 11.7068 11.4992 11.6145C11.9572 11.5221 12.4289 11.5212 12.8872 11.6118C13.3455 11.7025 13.7813 11.8828 14.1697 12.1425C14.558 12.4022 14.8912 12.7361 15.15 13.125Z" fill="#9F5AE5"/>
<path d="M10.2187 14.0125C11.0036 13.4896 11.9641 13.2998 12.8889 13.485C13.8137 13.6702 14.627 14.2151 15.15 15C15.3649 15.3193 15.5255 15.672 15.625 16.0438C15.7603 15.5192 15.7737 14.9706 15.6643 14.4401C15.5549 13.9095 15.3255 13.4111 14.9937 12.9828C14.662 12.5546 14.2366 12.208 13.7502 11.9696C13.2637 11.7311 12.7292 11.6071 12.1875 11.6071C11.6458 11.6071 11.1112 11.7311 10.6248 11.9696C10.1384 12.208 9.71304 12.5546 9.38125 12.9828C9.04947 13.4111 8.82008 13.9095 8.71067 14.4401C8.60125 14.9706 8.6147 15.5192 8.75 16.0438C8.97839 15.2116 9.50006 14.4901 10.2187 14.0125Z" fill="#BF8DF2"/>
<path d="M15.15 13.125C15.5398 13.7085 15.7479 14.3945 15.7481 15.0962C15.7482 15.798 15.5404 16.484 15.1508 17.0677C14.7613 17.6514 14.2075 18.1065 13.5594 18.3756C12.9113 18.6447 12.1979 18.7157 11.5095 18.5796C10.8211 18.4434 10.1885 18.1064 9.69153 17.6109C9.19459 17.1154 8.85566 16.4837 8.71753 15.7957C8.57941 15.1077 8.6483 14.3942 8.91549 13.7453C9.18269 13.0964 9.6362 12.5413 10.2187 12.15C10.6061 11.8888 11.0413 11.7068 11.4992 11.6145C11.9572 11.5221 12.4289 11.5212 12.8872 11.6118C13.3455 11.7025 13.7813 11.8828 14.1697 12.1425C14.558 12.4022 14.8912 12.7361 15.15 13.125Z" stroke="#45413C" stroke-linecap="round" stroke-linejoin="round"/>
<path d="M14.6688 18.1562C15.0606 18.7405 15.2703 19.4279 15.2714 20.1315C15.2725 20.835 15.0648 21.523 14.6748 22.1085C14.2848 22.694 13.7299 23.1507 13.0802 23.4207C12.4306 23.6908 11.7155 23.7621 11.0253 23.6256C10.3352 23.4892 9.70101 23.1511 9.20304 22.6541C8.70508 22.1572 8.36569 21.5237 8.22783 20.8338C8.08996 20.1439 8.15981 19.4287 8.42854 18.7785C8.69727 18.1283 9.1528 17.5725 9.7375 17.1812C10.5209 16.6571 11.4803 16.4654 12.4049 16.6482C13.3296 16.831 14.1438 17.3734 14.6688 18.1562Z" fill="#9F5AE5"/>
<path d="M9.7375 19.2312C10.5209 18.7071 11.4803 18.5154 12.4049 18.6982C13.3296 18.881 14.1438 19.4234 14.6688 20.2062C14.8637 20.4996 15.0152 20.8196 15.1188 21.1562C15.2799 20.6248 15.3145 20.0631 15.2195 19.5159C15.1246 18.9688 14.9028 18.4515 14.572 18.0055C14.2412 17.5594 13.8106 17.1971 13.3146 16.9474C12.8185 16.6977 12.2709 16.5677 11.7156 16.5677C11.1603 16.5677 10.6127 16.6977 10.1167 16.9474C9.62068 17.1971 9.19003 17.5594 8.85923 18.0055C8.52843 18.4515 8.30668 18.9688 8.21174 19.5159C8.1168 20.0631 8.15131 20.6248 8.3125 21.1562C8.55158 20.3696 9.05494 19.6896 9.7375 19.2312Z" fill="#BF8DF2"/>
<path d="M14.6688 18.1562C15.0606 18.7405 15.2703 19.4279 15.2714 20.1315C15.2725 20.835 15.0648 21.523 14.6748 22.1085C14.2848 22.694 13.7299 23.1507 13.0802 23.4207C12.4306 23.6908 11.7155 23.7621 11.0253 23.6256C10.3352 23.4892 9.70101 23.1511 9.20304 22.6541C8.70508 22.1572 8.36569 21.5237 8.22783 20.8338C8.08996 20.1439 8.15981 19.4287 8.42854 18.7785C8.69727 18.1283 9.1528 17.5725 9.7375 17.1812C10.5209 16.6571 11.4803 16.4654 12.4049 16.6482C13.3296 16.831 14.1438 17.3734 14.6688 18.1562Z" stroke="#45413C" stroke-linecap="round" stroke-linejoin="round"/>
<path d="M24.5062 11.1375C24.8968 11.7209 25.1056 12.4071 25.1063 13.1092C25.1069 13.8113 24.8993 14.4979 24.5098 15.082C24.1202 15.6661 23.5662 16.1216 22.9178 16.3909C22.2693 16.6602 21.5556 16.7311 20.8669 16.5948C20.1781 16.4584 19.5453 16.1209 19.0483 15.6249C18.5514 15.1289 18.2127 14.4966 18.0751 13.8081C17.9375 13.1196 18.0072 12.4058 18.2752 11.7569C18.5433 11.108 18.9978 10.5531 19.5812 10.1625C20.3641 9.64033 21.3221 9.44974 22.2452 9.63249C23.1683 9.81524 23.9814 10.3564 24.5062 11.1375Z" fill="#9F5AE5"/>
<path d="M19.5813 12.15C20.3641 11.6278 21.3221 11.4372 22.2452 11.62C23.1683 11.8027 23.9814 12.3439 24.5063 13.125C24.7104 13.4261 24.8664 13.7572 24.9688 14.1062C25.1243 13.576 25.1541 13.0169 25.0559 12.4731C24.9576 11.9294 24.734 11.416 24.4029 10.9738C24.0717 10.5315 23.642 10.1724 23.1478 9.92516C22.6537 9.67787 22.1088 9.54912 21.5562 9.54912C21.0037 9.54912 20.4588 9.67787 19.9647 9.92516C19.4705 10.1724 19.0408 10.5315 18.7096 10.9738C18.3785 11.416 18.1549 11.9294 18.0566 12.4731C17.9584 13.0169 17.9882 13.576 18.1437 14.1062C18.3781 13.3055 18.8871 12.6129 19.5813 12.15Z" fill="#BF8DF2"/>
<path d="M24.5062 11.1375C24.8968 11.7209 25.1056 12.4071 25.1063 13.1092C25.1069 13.8113 24.8993 14.4979 24.5098 15.082C24.1202 15.6661 23.5662 16.1216 22.9178 16.3909C22.2693 16.6602 21.5556 16.7311 20.8669 16.5948C20.1781 16.4584 19.5453 16.1209 19.0483 15.6249C18.5514 15.1289 18.2127 14.4966 18.0751 13.8081C17.9375 13.1196 18.0072 12.4058 18.2752 11.7569C18.5433 11.108 18.9978 10.5531 19.5812 10.1625C20.3641 9.64033 21.3221 9.44974 22.2452 9.63249C23.1683 9.81524 23.9814 10.3564 24.5062 11.1375Z" stroke="#45413C" stroke-linecap="round" stroke-linejoin="round"/>
<path d="M25.2125 16.6562C25.6023 17.2398 25.8104 17.9257 25.8106 18.6275C25.8107 19.3292 25.6029 20.0153 25.2133 20.599C24.8238 21.1826 24.27 21.6378 23.6219 21.9069C22.9738 22.176 22.2604 22.2469 21.572 22.1108C20.8836 21.9747 20.251 21.6376 19.754 21.1421C19.2571 20.6466 18.9182 20.015 18.78 19.327C18.6419 18.6389 18.7108 17.9254 18.978 17.2765C19.2452 16.6277 19.6987 16.0725 20.2812 15.6812C20.6686 15.4201 21.1038 15.2381 21.5617 15.1457C22.0197 15.0534 22.4914 15.0525 22.9497 15.1431C23.408 15.2337 23.8438 15.414 24.2322 15.6737C24.6205 15.9334 24.9537 16.2673 25.2125 16.6562Z" fill="#9F5AE5"/>
<path d="M20.2812 17.1812C20.7622 16.8579 21.3149 16.6573 21.8912 16.5968C22.4675 16.5363 23.0499 16.6178 23.5875 16.8341C24.1251 17.0505 24.6015 17.3952 24.9752 17.8381C25.3489 18.281 25.6084 18.8087 25.7312 19.375C25.8416 18.8576 25.835 18.322 25.7117 17.8075C25.5885 17.293 25.3519 16.8126 25.0191 16.4013C24.6863 15.99 24.2658 15.6583 23.7883 15.4304C23.3108 15.2026 22.7884 15.0843 22.2594 15.0843C21.7303 15.0843 21.2079 15.2026 20.7305 15.4304C20.253 15.6583 19.8325 15.99 19.4997 16.4013C19.1669 16.8126 18.9302 17.293 18.807 17.8075C18.6838 18.322 18.6771 18.8576 18.7875 19.375C18.9794 18.4765 19.5156 17.689 20.2812 17.1812Z" fill="#BF8DF2"/>
<path d="M25.2125 16.6562C25.6023 17.2398 25.8104 17.9257 25.8106 18.6275C25.8107 19.3292 25.6029 20.0153 25.2133 20.599C24.8238 21.1826 24.27 21.6378 23.6219 21.9069C22.9738 22.176 22.2604 22.2469 21.572 22.1108C20.8836 21.9747 20.251 21.6376 19.754 21.1421C19.2571 20.6466 18.9182 20.015 18.78 19.327C18.6419 18.6389 18.7108 17.9254 18.978 17.2765C19.2452 16.6277 19.6987 16.0725 20.2812 15.6812C20.6686 15.4201 21.1038 15.2381 21.5617 15.1457C22.0197 15.0534 22.4914 15.0525 22.9497 15.1431C23.408 15.2337 23.8438 15.414 24.2322 15.6737C24.6205 15.9334 24.9537 16.2673 25.2125 16.6562Z" stroke="#45413C" stroke-linecap="round" stroke-linejoin="round"/>
<path d="M20 21C20.3882 21.5863 20.5939 22.2746 20.5911 22.9778C20.5882 23.681 20.3769 24.3676 19.9839 24.9508C19.5909 25.5339 19.0338 25.9875 18.3831 26.2541C17.7324 26.5207 17.0173 26.5884 16.3281 26.4486C15.6389 26.3089 15.0066 25.9679 14.5111 25.4689C14.0157 24.9699 13.6793 24.3351 13.5445 23.6449C13.4097 22.9548 13.4826 22.2401 13.7539 21.5913C14.0252 20.9426 14.4828 20.3888 15.0688 20C15.8556 19.4799 16.8167 19.2931 17.7411 19.4806C18.6655 19.668 19.4779 20.2144 20 21Z" fill="#9F5AE5"/>
<path d="M20.5 22.0438C20.2861 22.2622 20.0493 22.4571 19.7938 22.625C17.9188 23.875 15.4687 23.55 14.3375 21.8563C14.1997 21.6626 14.0863 21.4527 14 21.2313C14.2989 20.7052 14.7275 20.2645 15.245 19.951C15.7625 19.6376 16.3516 19.4618 16.9563 19.4405C17.5609 19.4192 18.161 19.553 18.6992 19.8293C19.2375 20.1056 19.6961 20.5151 20.0312 21.0188C20.2424 21.3325 20.4008 21.6788 20.5 22.0438Z" fill="#803EC2"/>
<path d="M20 21C20.3882 21.5863 20.5939 22.2746 20.5911 22.9778C20.5882 23.681 20.3769 24.3676 19.9839 24.9508C19.5909 25.5339 19.0338 25.9875 18.3831 26.2541C17.7324 26.5207 17.0173 26.5884 16.3281 26.4486C15.6389 26.3089 15.0066 25.9679 14.5111 25.4689C14.0157 24.9699 13.6793 24.3351 13.5445 23.6449C13.4097 22.9548 13.4826 22.2401 13.7539 21.5913C14.0252 20.9426 14.4828 20.3888 15.0688 20C15.8556 19.4799 16.8167 19.2931 17.7411 19.4806C18.6655 19.668 19.4779 20.2144 20 21Z" stroke="#45413C" stroke-linecap="round" stroke-linejoin="round"/>
<path d="M16.4937 13.9312C15.4778 12.1178 14.0148 10.5945 12.2437 9.50624C10.8986 8.60293 9.36669 8.01537 7.7625 7.78749C7.60736 7.76605 7.4495 7.79677 7.31373 7.87484C7.17797 7.9529 7.072 8.07388 7.0125 8.21874L6.64375 9.11874C6.5991 9.22415 6.58074 9.33884 6.59026 9.45292C6.59978 9.567 6.63689 9.67706 6.69839 9.77361C6.75988 9.87017 6.84393 9.95032 6.94329 10.0072C7.04265 10.064 7.15434 10.0959 7.26875 10.1C8.72161 10.1827 10.1337 10.6113 11.3875 11.35C14.8125 13.4375 15.7625 15.2875 15.7625 15.2875L16.4937 13.9312Z" fill="#6DD627"/>
<path d="M11.8312 10.4312C13.5767 11.431 15.0609 12.8295 16.1625 14.5125L16.4937 13.9312C15.4778 12.1178 14.0148 10.5945 12.2438 9.50624C10.8986 8.60293 9.36669 8.01537 7.7625 7.78749C7.60737 7.76605 7.4495 7.79677 7.31374 7.87484C7.17797 7.9529 7.07201 8.07388 7.0125 8.21874L6.75 8.81249C8.54674 8.94877 10.2868 9.5031 11.8312 10.4312Z" fill="#9CEB60"/>
<path d="M16.4937 13.9312C15.4778 12.1178 14.0148 10.5945 12.2437 9.50624C10.8986 8.60293 9.36669 8.01537 7.7625 7.78749C7.60736 7.76605 7.4495 7.79677 7.31373 7.87484C7.17797 7.9529 7.072 8.07388 7.0125 8.21874L6.64375 9.11874C6.5991 9.22415 6.58074 9.33884 6.59026 9.45292C6.59978 9.567 6.63689 9.67706 6.69839 9.77361C6.75988 9.87017 6.84393 9.95032 6.94329 10.0072C7.04265 10.064 7.15434 10.0959 7.26875 10.1C8.72161 10.1827 10.1337 10.6113 11.3875 11.35C14.8125 13.4375 15.7625 15.2875 15.7625 15.2875L16.4937 13.9312Z" stroke="#45413C" stroke-linecap="round" stroke-linejoin="round"/>
<path d="M21.2625 14.5938C21.7319 15.2941 21.983 16.118 21.9841 16.9611C21.9853 17.8042 21.7363 18.6287 21.2688 19.3303C20.8013 20.032 20.1362 20.5792 19.3577 20.9028C18.5792 21.2264 17.7222 21.3119 16.895 21.1484C16.0679 20.9849 15.3079 20.5798 14.711 19.9843C14.1142 19.3888 13.7073 18.6297 13.542 17.8029C13.3766 16.9762 13.4601 16.119 13.7819 15.3397C14.1037 14.5604 14.6494 13.8941 15.35 13.425C15.8147 13.1128 16.3365 12.8954 16.8854 12.7852C17.4343 12.6749 17.9995 12.6741 18.5487 12.7827C19.098 12.8912 19.6204 13.1071 20.086 13.4179C20.5517 13.7286 20.9515 14.1282 21.2625 14.5938Z" fill="#9F5AE5"/>
<path d="M15.35 15.8813C15.9044 15.511 16.5378 15.2758 17.1994 15.1943C17.8611 15.1129 18.5326 15.1876 19.1602 15.4124C19.7878 15.6372 20.354 16.0058 20.8135 16.4888C21.273 16.9718 21.613 17.5557 21.8063 18.1938C21.9962 17.5575 22.0349 16.8857 21.9192 16.2318C21.8035 15.578 21.5367 14.9602 21.1399 14.4277C20.7432 13.8952 20.2276 13.4628 19.6342 13.1649C19.0407 12.867 18.3859 12.7119 17.7219 12.7119C17.0579 12.7119 16.403 12.867 15.8096 13.1649C15.2162 13.4628 14.7005 13.8952 14.3038 14.4277C13.9071 14.9602 13.6403 15.578 13.5246 16.2318C13.4089 16.8857 13.4476 17.5575 13.6375 18.1938C13.9221 17.2472 14.5276 16.4295 15.35 15.8813Z" fill="#BF8DF2"/>
<path d="M21.2625 14.5938C21.7319 15.2941 21.983 16.118 21.9841 16.9611C21.9853 17.8042 21.7363 18.6287 21.2688 19.3303C20.8013 20.032 20.1362 20.5792 19.3577 20.9028C18.5792 21.2264 17.7222 21.3119 16.895 21.1484C16.0679 20.9849 15.3079 20.5798 14.711 19.9843C14.1142 19.3888 13.7073 18.6297 13.542 17.8029C13.3766 16.9762 13.4601 16.119 13.7819 15.3397C14.1037 14.5604 14.6494 13.8941 15.35 13.425C15.8147 13.1128 16.3365 12.8954 16.8854 12.7852C17.4343 12.6749 17.9995 12.6741 18.5487 12.7827C19.098 12.8912 19.6204 13.1071 20.086 13.4179C20.5517 13.7286 20.9515 14.1282 21.2625 14.5938Z" stroke="#45413C" stroke-linecap="round" stroke-linejoin="round"/>
<path d="M10.7562 3.31875C10.7703 3.24788 10.8027 3.18195 10.8503 3.12756C10.8978 3.07316 10.9588 3.0322 11.0272 3.00879C11.0955 2.98537 11.1688 2.98032 11.2397 2.99413C11.3106 3.00795 11.3767 3.04014 11.4312 3.0875L12.75 4.19375C12.7955 4.23418 12.8495 4.26388 12.908 4.28065C12.9665 4.29742 13.028 4.30083 13.088 4.29063C13.148 4.28043 13.2049 4.25688 13.2546 4.22172C13.3043 4.18656 13.3454 4.14069 13.375 4.0875L13.4625 3.94375C13.9238 3.1662 14.6457 2.5772 15.5 2.28125L16.125 2.06875C16.2279 2.03742 16.3388 2.0457 16.436 2.09196C16.5331 2.13821 16.6094 2.2191 16.65 2.31875L16.8937 2.8625C17.2189 3.5851 17.3503 4.37994 17.275 5.16875V5.3375C17.2662 5.40305 17.2713 5.46973 17.2901 5.53315C17.3089 5.59657 17.3408 5.6553 17.3839 5.70548C17.427 5.75565 17.4803 5.79614 17.5401 5.82428C17.6 5.85242 17.6651 5.86758 17.7312 5.86875L19.0937 5.81875C19.1728 5.82129 19.25 5.84355 19.3183 5.88349C19.3866 5.92343 19.4438 5.9798 19.4848 6.04748C19.5258 6.11515 19.5492 6.19199 19.5529 6.27102C19.5567 6.35004 19.5406 6.42875 19.5062 6.5L19.3062 6.94375C18.9698 7.72741 18.437 8.41114 17.7593 8.92896C17.0817 9.44678 16.282 9.78121 15.4375 9.9L13.175 10.1875L11.75 8.3125C11.2208 7.60777 10.8567 6.79311 10.6847 5.92874C10.5127 5.06437 10.5371 4.1724 10.7562 3.31875Z" fill="#6DD627"/>
<path d="M10.7562 4.73125C10.7703 4.66038 10.8027 4.59445 10.8503 4.54005C10.8978 4.48566 10.9588 4.4447 11.0272 4.42129C11.0955 4.39787 11.1688 4.39282 11.2397 4.40663C11.3106 4.42044 11.3767 4.45264 11.4312 4.5L12.75 5.625C12.7964 5.6633 12.8505 5.69116 12.9086 5.70669C12.9667 5.72221 13.0275 5.72502 13.0868 5.71494C13.1461 5.70486 13.2026 5.68211 13.2523 5.64826C13.302 5.6144 13.3439 5.57023 13.375 5.51875L13.4562 5.375C13.9157 4.58925 14.6404 3.99313 15.5 3.69375L16.125 3.475C16.2279 3.4465 16.3377 3.4561 16.4341 3.50202C16.5306 3.54795 16.6072 3.62712 16.65 3.725L16.8937 4.275C17.2189 4.99759 17.3503 5.79243 17.275 6.58125V6.75C17.2661 6.81524 17.2712 6.88163 17.2901 6.94473C17.3089 7.00783 17.341 7.06618 17.3842 7.11588C17.4274 7.16558 17.4807 7.20549 17.5405 7.23293C17.6004 7.26037 17.6654 7.27471 17.7312 7.275L19.0937 7.225H19.15L19.3062 6.93125L19.5062 6.48125C19.5406 6.41 19.5567 6.33129 19.5529 6.25226C19.5492 6.17324 19.5258 6.0964 19.4848 6.02872C19.4438 5.96105 19.3866 5.90468 19.3183 5.86474C19.25 5.82479 19.1728 5.80254 19.0937 5.8L17.7312 5.85C17.6651 5.84882 17.6 5.83367 17.5401 5.80553C17.4803 5.77739 17.427 5.7369 17.3839 5.68672C17.3409 5.63654 17.3089 5.57782 17.2901 5.51439C17.2713 5.45097 17.2662 5.3843 17.275 5.31875V5.15C17.3503 4.36118 17.2189 3.56635 16.8937 2.84375L16.65 2.3C16.6094 2.20035 16.5331 2.11946 16.436 2.0732C16.3388 2.02695 16.2279 2.01867 16.125 2.05L15.5 2.2625C14.6411 2.55588 13.9144 3.14515 13.45 3.925L13.3687 4.06875C13.3384 4.12106 13.2969 4.16606 13.2472 4.20055C13.1975 4.23503 13.1408 4.25817 13.0811 4.2683C13.0215 4.27844 12.9604 4.27534 12.9021 4.25921C12.8437 4.24309 12.7897 4.21434 12.7437 4.175L11.4312 3.0875C11.3767 3.04014 11.3106 3.00794 11.2397 2.99413C11.1688 2.98032 11.0955 2.98537 11.0272 3.00879C10.9588 3.0322 10.8978 3.07316 10.8503 3.12755C10.8027 3.18195 10.7703 3.24788 10.7562 3.31875C10.5799 4.01894 10.5333 4.74551 10.6187 5.4625C10.6494 5.21614 10.6954 4.97192 10.7562 4.73125Z" fill="#9CEB60"/>
<path d="M10.7562 3.31875C10.7703 3.24788 10.8027 3.18195 10.8503 3.12756C10.8978 3.07316 10.9588 3.0322 11.0272 3.00879C11.0955 2.98537 11.1688 2.98032 11.2397 2.99413C11.3106 3.00795 11.3767 3.04014 11.4312 3.0875L12.75 4.19375C12.7955 4.23418 12.8495 4.26388 12.908 4.28065C12.9665 4.29742 13.028 4.30083 13.088 4.29063C13.148 4.28043 13.2049 4.25688 13.2546 4.22172C13.3043 4.18656 13.3454 4.14069 13.375 4.0875L13.4625 3.94375C13.9238 3.1662 14.6457 2.5772 15.5 2.28125L16.125 2.06875C16.2279 2.03742 16.3388 2.0457 16.436 2.09196C16.5331 2.13821 16.6094 2.2191 16.65 2.31875L16.8937 2.8625C17.2189 3.5851 17.3503 4.37994 17.275 5.16875V5.3375C17.2662 5.40305 17.2713 5.46973 17.2901 5.53315C17.3089 5.59657 17.3408 5.6553 17.3839 5.70548C17.427 5.75565 17.4803 5.79614 17.5401 5.82428C17.6 5.85242 17.6651 5.86758 17.7312 5.86875L19.0937 5.81875C19.1728 5.82129 19.25 5.84355 19.3183 5.88349C19.3866 5.92343 19.4438 5.9798 19.4848 6.04748C19.5258 6.11515 19.5492 6.19199 19.5529 6.27102C19.5567 6.35004 19.5406 6.42875 19.5062 6.5L19.3062 6.94375C18.9698 7.72741 18.437 8.41114 17.7593 8.92896C17.0817 9.44678 16.282 9.78121 15.4375 9.9L13.175 10.1875L11.75 8.3125C11.2208 7.60777 10.8567 6.79311 10.6847 5.92874C10.5127 5.06437 10.5371 4.1724 10.7562 3.31875Z" stroke="#45413C" stroke-linecap="round" stroke-linejoin="round"/>
<path d="M13.1875 10.1875C13.1312 8.9375 13.7687 7.1 14.975 5.48125" stroke="#45413C" stroke-linecap="round" stroke-linejoin="round"/>
</svg>
